<svg width="21" height="20" viewBox="0 0 21 20" fill="none" xmlns="http://www.w3.org/2000/svg">
<path fill-rule="evenodd" clip-rule="evenodd" d="M13.4221 5.22768H18.9799V3.61132H13.4122V5.22768H13.4221ZM14.7345 8.75051C14.3766 9.12352 14.1578 9.6105 14.0684 10.2425H18.3933C18.39 9.95435 18.329 9.67003 18.2143 9.40778C18.0996 9.14552 17.9337 8.91107 17.7271 8.71943C17.3294 8.37751 16.8323 8.20137 16.2358 8.20137C15.5895 8.20137 15.0924 8.38787 14.7444 8.75051H14.7345ZM18.4927 6.57464C19.1588 6.88548 19.7056 7.35174 20.1431 8.0045C20.5408 8.57437 20.7993 9.2375 20.9087 9.99387C20.9783 10.429 21.0081 11.0714 20.9981 11.9003H14.0087C14.0485 12.8639 14.3766 13.5374 15.0029 13.9208C15.4006 14.1695 15.848 14.2834 16.3949 14.2834C16.8929 14.3079 17.3839 14.1544 17.7868 13.8483C17.9856 13.6825 18.1546 13.4649 18.3038 13.1851H20.8589C20.7993 13.755 20.4811 14.3249 19.9343 14.9258C19.459 15.4075 18.8925 15.7806 18.2712 16.0214C17.6498 16.2622 16.9871 16.3655 16.3253 16.3246C15.102 16.3453 13.9089 15.9284 12.9449 15.1434C11.9705 14.356 11.4834 13.0712 11.4834 11.2994C11.4834 9.63123 11.9208 8.35679 12.7957 7.46572C13.2551 7.01584 13.796 6.66593 14.3866 6.43643C14.9773 6.20693 15.6059 6.10246 16.2358 6.12911C17.0709 6.12911 17.8265 6.28453 18.4927 6.58501V6.57464ZM2.585 10.284V13.755H5.73671C6.30342 13.755 6.73094 13.6721 7.04909 13.5271C7.62574 13.237 7.90413 12.6982 7.90413 11.9003C7.90413 11.2269 7.63569 10.7606 7.07892 10.5016C6.77071 10.3669 6.33325 10.2943 5.78642 10.2943H2.585V10.284ZM2.585 5.26912V8.1392H5.74665C6.30342 8.1392 6.76076 8.03559 7.11869 7.80764C7.46667 7.60041 7.64563 7.21704 7.64563 6.6679C7.64563 6.06694 7.40701 5.66285 6.94967 5.46599C6.55198 5.33129 6.03498 5.25876 5.40861 5.25876H2.585V5.26912ZM9.63409 4.39877C10.0318 4.94792 10.2306 5.61104 10.2306 6.37778C10.2306 7.1756 10.0318 7.80764 9.63409 8.29462C9.40542 8.56401 9.07732 8.81268 8.63986 9.03027C9.29605 9.27894 9.80311 9.65195 10.1312 10.1804C10.4792 10.6984 10.6482 11.3408 10.6482 12.0869C10.6482 12.8536 10.4494 13.5374 10.0616 14.1591C9.7998 14.5973 9.45172 14.9726 9.04038 15.2602C8.62904 15.5477 8.16381 15.741 7.67546 15.8273C7.11869 15.9516 6.50226 16.0034 5.84607 16.0034H0V3H6.26365C7.85442 3.03108 8.98784 3.48698 9.64403 4.38841L9.63409 4.39877Z" fill="white"/>
</svg>
