<svg width="24" height="24" viewBox="0 0 24 24" fill="none" xmlns="http://www.w3.org/2000/svg">
<path fill-rule="evenodd" clip-rule="evenodd" d="M15.0612 8.08997H20.8836V6.46512H15.0508V8.08997H15.0612ZM16.4361 11.6313C16.0612 12.0063 15.832 12.4958 15.7383 13.1312H20.2691C20.2657 12.8415 20.2018 12.5557 20.0817 12.292C19.9615 12.0284 19.7877 11.7927 19.5713 11.6001C19.1546 11.2564 18.6338 11.0793 18.0089 11.0793C17.3319 11.0793 16.8111 11.2668 16.4465 11.6313H16.4361ZM20.3733 9.44402C21.0711 9.75649 21.644 10.2252 22.1023 10.8814C22.5189 11.4543 22.7897 12.1209 22.9043 12.8812C22.9772 13.3187 23.0085 13.9645 22.998 14.7977H15.6758C15.7174 15.7664 16.0612 16.4434 16.7173 16.8288C17.134 17.0788 17.6027 17.1933 18.1756 17.1933C18.6973 17.218 19.2117 17.0636 19.6338 16.7559C19.8421 16.5892 20.0191 16.3705 20.1754 16.0893H22.8522C22.7897 16.6621 22.4564 17.235 21.8836 17.8391C21.3856 18.3233 20.7922 18.6983 20.1412 18.9404C19.4902 19.1825 18.796 19.2863 18.1026 19.2452C16.8211 19.2661 15.5712 18.847 14.5613 18.0579C13.5405 17.2663 13.0302 15.9747 13.0302 14.1936C13.0302 12.5167 13.4885 11.2355 14.405 10.3398C14.8863 9.88754 15.4529 9.53579 16.0717 9.30508C16.6905 9.07438 17.349 8.96935 18.0089 8.99614C18.8838 8.99614 19.6754 9.15238 20.3733 9.45444V9.44402ZM3.70807 13.1729V16.6621H7.00986C7.60356 16.6621 8.05144 16.5788 8.38474 16.433C8.98885 16.1414 9.28049 15.5997 9.28049 14.7977C9.28049 14.1207 8.99927 13.652 8.41599 13.3916C8.0931 13.2562 7.63481 13.1833 7.06194 13.1833H3.70807V13.1729ZM3.70807 8.13164V11.0168H7.02028C7.60356 11.0168 8.08268 10.9126 8.45765 10.6835C8.8222 10.4752 9.00969 10.0898 9.00969 9.53776C9.00969 8.93365 8.75971 8.52744 8.28058 8.32954C7.86395 8.19413 7.32233 8.12122 6.66614 8.12122H3.70807V8.13164ZM11.0928 7.25671C11.5095 7.80875 11.7178 8.47536 11.7178 9.24612C11.7178 10.0481 11.5095 10.6835 11.0928 11.173C10.8533 11.4438 10.5096 11.6938 10.0513 11.9126C10.7387 12.1625 11.2699 12.5375 11.6136 13.0687C11.9782 13.5895 12.1552 14.2353 12.1552 14.9852C12.1552 15.756 11.9469 16.4434 11.5407 17.0684C11.2664 17.5089 10.9018 17.8861 10.4709 18.1752C10.0399 18.4643 9.55255 18.6586 9.04093 18.7453C8.45765 18.8703 7.81187 18.9224 7.12443 18.9224H0.999969V5.85059H7.5619C9.22842 5.88183 10.4158 6.34013 11.1033 7.2463L11.0928 7.25671Z" fill="white"/>
</svg>
