<svg width="18" height="18" viewBox="0 0 18 18" fill="none" xmlns="http://www.w3.org/2000/svg">
<path d="M12.978 14.778C12.6 13.05 12.15 11.457 11.7 10.053C12.15 9.99 12.6 9.954 13.122 9.954H13.14C13.977 9.954 14.895 10.062 15.894 10.287C15.552 12.15 14.472 13.743 12.978 14.778ZM9 16.02C7.434 16.02 5.994 15.507 4.824 14.634C5.076 14.229 5.607 13.446 6.462 12.636C7.326 11.799 8.55 10.935 10.107 10.422C10.638 11.925 11.124 13.635 11.493 15.561C10.719 15.858 9.9 16.02 9 16.02ZM1.98 9C1.98 8.964 1.98 8.937 1.98 8.901C2.178 8.91 2.439 8.91 2.745 8.91H2.754C4.158 8.901 6.624 8.784 9.126 8.001C9.261 8.298 9.396 8.604 9.531 8.928C7.857 9.486 6.543 10.377 5.571 11.25C4.644 12.114 4.005 12.951 3.636 13.5C2.61 12.294 1.98 10.719 1.98 9ZM5.895 2.7C6.39 3.285 7.362 4.554 8.406 6.525C6.3 7.164 4.149 7.308 2.862 7.308C2.826 7.308 2.79 7.308 2.754 7.308H2.745C2.529 7.308 2.34 7.308 2.187 7.299C2.7 5.283 4.05 3.6 5.895 2.7ZM9 1.98C10.656 1.98 12.177 2.556 13.374 3.519C12.456 4.626 11.25 5.4 9.927 5.985C9 4.203 8.1 2.925 7.506 2.142C7.992 2.043 8.487 1.98 9 1.98ZM14.517 4.662C15.39 5.778 15.939 7.164 16.011 8.667C14.994 8.451 14.04 8.352 13.14 8.352H13.131C12.411 8.352 11.736 8.415 11.097 8.523C10.944 8.145 10.8 7.785 10.629 7.434C12.051 6.813 13.41 5.922 14.517 4.662ZM9 0C4.02944 0 0 4.02944 0 9C0 11.3869 0.948212 13.6761 2.63604 15.364C4.32387 17.0518 6.61305 18 9 18C11.3869 18 13.6761 17.0518 15.364 15.364C17.0518 13.6761 18 11.3869 18 9C18 6.61305 17.0518 4.32387 15.364 2.63604C13.6761 0.948212 11.3869 0 9 0Z" fill="white"/>
</svg>
