<svg width="24" height="24" viewBox="0 0 24 24" fill="none" xmlns="http://www.w3.org/2000/svg">
<path fill-rule="evenodd" clip-rule="evenodd" d="M16.9091 19.2852C16.8196 18.7554 16.3515 16.1769 15.1987 13.0118C18.0352 12.5582 20.4919 13.3359 20.6733 13.3952C20.2826 15.8431 18.8807 17.9536 16.9091 19.2852ZM12.0006 20.7849C9.87415 20.7849 7.92429 20.029 6.40384 18.7711C6.51996 18.8655 6.60101 18.9247 6.60101 18.9247C6.60101 18.9247 8.28475 15.2529 13.4944 13.4375C13.5138 13.4302 13.5344 13.4254 13.5537 13.4194C14.7899 16.6304 15.2991 19.3202 15.4298 20.0882C14.3762 20.5357 13.2162 20.7849 12.0006 20.7849ZM3.21538 11.9995C3.21538 11.9063 3.22021 11.8144 3.22263 11.7225C3.37867 11.7261 7.71866 11.8241 12.2413 10.4707C12.4929 10.963 12.7336 11.4649 12.9538 11.9644C12.8376 11.9958 12.7227 12.0309 12.6078 12.0696C7.86744 13.6008 5.46279 17.8653 5.46279 17.8653C5.46279 17.8653 5.46641 17.8689 5.46641 17.8701C4.06692 16.3135 3.21538 14.2563 3.21538 11.9995V11.9995ZM8.25209 4.05705C8.36942 4.21307 9.9939 6.41546 11.5143 9.11736C7.29652 10.2385 3.6351 10.1938 3.40407 10.1901C3.97379 7.46889 5.80147 5.21328 8.25209 4.05705V4.05705ZM9.89592 3.47168C9.89592 3.47289 9.89471 3.4741 9.89471 3.4741C9.89471 3.4741 9.88382 3.47651 9.8681 3.47893C9.87778 3.47651 9.88624 3.47531 9.89592 3.47168ZM17.8018 5.40921C17.78 5.44186 16.5293 7.34673 13.2126 8.58883C11.7115 5.83009 10.0616 3.63858 9.92979 3.46442C10.5939 3.30356 11.2869 3.21648 12.0006 3.21648C14.2238 3.21648 16.2547 4.04616 17.8018 5.40921V5.40921ZM20.7822 11.9124C20.6552 11.8846 17.682 11.2448 14.6641 11.6245C14.6012 11.4746 14.5395 11.3234 14.4742 11.1722C14.2916 10.7416 14.0944 10.3159 13.89 9.89745C17.3591 8.48119 18.767 6.4457 18.784 6.42151C20.0153 7.91759 20.7616 9.82851 20.7822 11.9124V11.9124ZM22.0777 9.93011C21.9422 9.26975 21.739 8.61786 21.4765 7.99621C21.2201 7.38665 20.8995 6.79886 20.5282 6.24977C20.1617 5.70552 19.7383 5.19272 19.2738 4.72829C18.8081 4.26265 18.2965 3.84056 17.751 3.47289C17.2018 3.10038 16.614 2.78229 16.0043 2.52347C15.3826 2.26223 14.7318 2.05905 14.0714 1.9248C13.394 1.78571 12.6973 1.71436 12.0006 1.71436C11.3027 1.71436 10.6059 1.78571 9.92858 1.9248C9.26814 2.05905 8.61739 2.26223 7.99566 2.52347C7.38603 2.78229 6.79817 3.10038 6.24781 3.47289C5.70349 3.84056 5.19184 4.26265 4.72615 4.72829C4.26167 5.19272 3.83952 5.70552 3.47181 6.24977C3.10046 6.79886 2.77992 7.38665 2.52349 7.99621C2.2598 8.61786 2.0578 9.26975 1.92233 9.93011C1.78444 10.6062 1.71428 11.3028 1.71428 11.9995C1.71428 12.6985 1.78444 13.3952 1.92233 14.0725C2.0578 14.7328 2.2598 15.3835 2.52349 16.0039C2.77992 16.6135 3.10046 17.2037 3.47181 17.7528C3.83952 18.297 4.26167 18.8074 4.72615 19.2743C5.19184 19.7387 5.70349 20.1596 6.24781 20.5285C6.79817 20.8998 7.38603 21.2191 7.99566 21.4767C8.61739 21.7403 9.26814 21.9411 9.92858 22.0753C10.6059 22.2156 11.3027 22.2858 12.0006 22.2858C12.6973 22.2858 13.394 22.2156 14.0714 22.0753C14.7318 21.9411 15.3826 21.7403 16.0043 21.4767C16.614 21.2191 17.2018 20.8998 17.751 20.5285C18.2965 20.1596 18.8081 19.7387 19.2738 19.2743C19.7383 18.8074 20.1617 18.297 20.5282 17.7528C20.8995 17.2037 21.2201 16.6135 21.4765 16.0039C21.739 15.3835 21.9422 14.7328 22.0777 14.0725C22.2156 13.3952 22.2857 12.6985 22.2857 11.9995C22.2857 11.3028 22.2156 10.6062 22.0777 9.93011V9.93011Z" fill="white"/>
</svg>
