<svg width="24" height="24" viewBox="0 0 24 24" fill="none" xmlns="http://www.w3.org/2000/svg">
<path fill-rule="evenodd" clip-rule="evenodd" d="M12.7126 21.7675H2.85155C2.70409 21.7694 2.5577 21.7423 2.42074 21.6876C2.28378 21.6329 2.15893 21.5518 2.05333 21.4489C1.94772 21.3459 1.86342 21.2232 1.80525 21.0877C1.74708 20.9522 1.71617 20.8065 1.71429 20.6591V2.80843C1.71429 2.20381 2.21814 1.71436 2.85155 1.71436H21.1485C21.7819 1.71436 22.2857 2.20381 22.2857 2.82282V20.6591C22.2857 21.2637 21.7819 21.7675 21.1485 21.7675H15.9084V13.9939H18.586L18.9747 10.9708H15.9084V9.05615C15.9084 8.19241 16.1532 7.58779 17.4488 7.58779H19.0899V4.86701C18.802 4.82382 17.8231 4.73745 16.6858 4.73745C14.3249 4.73745 12.6982 6.14823 12.6982 8.73945V10.9708H10.0206V13.9939H12.7126V21.7675Z" fill="white"/>
</svg>
