<svg width="18" height="17" viewBox="0 0 18 17" fill="none" xmlns="http://www.w3.org/2000/svg">
<path d="M8.71103 0C3.90006 0 0 3.90006 0 8.71103C0 12.5613 2.50006 15.8279 5.95834 16.9865C6.39389 17.0562 6.53328 16.7862 6.53328 16.551C6.53328 16.3506 6.53328 15.8018 6.53328 15.0788C4.12032 15.6015 3.60637 13.9115 3.60637 13.9115C3.20566 12.901 2.63943 12.631 2.63943 12.631C1.84673 12.0909 2.70042 12.1083 2.70042 12.1083C3.57153 12.1693 4.0332 13.0056 4.0332 13.0056C4.79106 14.3296 6.07159 13.9376 6.56812 13.7286C6.64651 13.1624 6.873 12.7791 7.11691 12.5613C5.18306 12.3435 3.1534 11.5944 3.1534 8.27548C3.1534 7.30855 3.48441 6.53327 4.05063 5.91479C3.96352 5.69701 3.65863 4.79107 4.13774 3.61508C4.13774 3.61508 4.86947 3.37988 6.53328 4.5036C7.22145 4.31196 7.97059 4.21614 8.71103 4.21614C9.45147 4.21614 10.2006 4.31196 10.8888 4.5036C12.5526 3.37988 13.2843 3.61508 13.2843 3.61508C13.7634 4.79107 13.4585 5.69701 13.3714 5.91479C13.9376 6.53327 14.2687 7.30855 14.2687 8.27548C14.2687 11.6031 12.2303 12.3348 10.2877 12.5526C10.6013 12.8226 10.8888 13.354 10.8888 14.1641C10.8888 15.3314 10.8888 16.2722 10.8888 16.551C10.8888 16.7862 11.0282 17.0649 11.4724 16.9865C14.9307 15.8192 17.4221 12.5613 17.4221 8.71103C17.4221 6.40072 16.5043 4.18504 14.8707 2.5514C13.237 0.917766 11.0213 0 8.71103 0Z" fill="white"/>
</svg>
