<svg width="24" height="24" viewBox="0 0 24 24" fill="none" xmlns="http://www.w3.org/2000/svg">
<path fill-rule="evenodd" clip-rule="evenodd" d="M12 1.71436C14.7934 1.71436 15.1437 1.72589 16.2408 1.77464C17.3356 1.82328 18.0833 1.99266 18.7375 2.24034C19.4139 2.49633 19.9875 2.8389 20.5594 3.39586C21.1312 3.95286 21.4829 4.51157 21.7457 5.17038C22 5.80763 22.1739 6.53591 22.2238 7.60227C22.2739 8.67086 22.2857 9.01203 22.2857 11.7329C22.2857 14.4538 22.2739 14.795 22.2238 15.8635C22.1739 16.9299 22 17.6582 21.7457 18.2954C21.4829 18.9542 21.1312 19.513 20.5594 20.07C19.9875 20.6269 19.4139 20.9695 18.7375 21.2255C18.0833 21.4732 17.3356 21.6425 16.2408 21.6912C15.1437 21.7399 14.7934 21.7515 12 21.7515C9.20656 21.7515 8.85629 21.7399 7.75921 21.6912C6.66441 21.6425 5.91671 21.4732 5.26246 21.2255C4.58608 20.9695 4.01247 20.6269 3.44062 20.07C2.86881 19.513 2.5171 18.9542 2.25429 18.2954C2 17.6582 1.82611 16.9299 1.77618 15.8635C1.72612 14.795 1.71428 14.4538 1.71428 11.7329C1.71428 9.01203 1.72612 8.67086 1.77618 7.60227C1.82611 6.53591 2 5.80763 2.25429 5.17038C2.5171 4.51157 2.86881 3.95286 3.44062 3.39586C4.01247 2.8389 4.58608 2.49633 5.26246 2.24034C5.91671 1.99266 6.66441 1.82328 7.75921 1.77464C8.85629 1.72589 9.20656 1.71436 12 1.71436V1.71436ZM12 3.5195C9.2536 3.5195 8.92827 3.52972 7.84368 3.57792C6.84084 3.62246 6.29621 3.78567 5.93377 3.92287C5.45366 4.10461 5.11102 4.32171 4.75111 4.67231C4.39116 5.02287 4.16828 5.35661 3.98169 5.82425C3.84083 6.17728 3.67326 6.70775 3.62754 7.68455C3.57805 8.74097 3.56756 9.05785 3.56756 11.7329C3.56756 14.408 3.57805 14.7248 3.62754 15.7813C3.67326 16.7581 3.84083 17.2885 3.98169 17.6416C4.16828 18.1092 4.39121 18.4429 4.75111 18.7935C5.11102 19.1441 5.45366 19.3612 5.93377 19.5429C6.29621 19.6801 6.84084 19.8434 7.84368 19.8879C8.92815 19.9361 9.25339 19.9463 12 19.9463C14.7466 19.9463 15.0719 19.9361 16.1563 19.8879C17.1592 19.8434 17.7038 19.6801 18.0662 19.5429C18.5463 19.3612 18.889 19.1441 19.2489 18.7935C19.6088 18.4429 19.8317 18.1092 20.0183 17.6416C20.1592 17.2885 20.3267 16.7581 20.3725 15.7813C20.4219 14.7248 20.4324 14.408 20.4324 11.7329C20.4324 9.05785 20.4219 8.74097 20.3725 7.68455C20.3267 6.70775 20.1592 6.17728 20.0183 5.82425C19.8317 5.35661 19.6088 5.02287 19.2489 4.67231C18.889 4.32171 18.5463 4.10461 18.0662 3.92287C17.7038 3.78567 17.1592 3.62246 16.1563 3.57792C15.0717 3.52972 14.7464 3.5195 12 3.5195V3.5195ZM12 6.58825C14.9171 6.58825 17.2818 8.89157 17.2818 11.7329C17.2818 14.5742 14.9171 16.8776 12 16.8776C9.08289 16.8776 6.71814 14.5742 6.71814 11.7329C6.71814 8.89157 9.08289 6.58825 12 6.58825ZM12 15.0724C13.8936 15.0724 15.4286 13.5773 15.4286 11.7329C15.4286 9.88853 13.8936 8.39339 12 8.39339C10.1064 8.39339 8.57142 9.88853 8.57142 11.7329C8.57142 13.5773 10.1064 15.0724 12 15.0724V15.0724ZM18.7248 6.38499C18.7248 7.04897 18.1722 7.5872 17.4905 7.5872C16.8089 7.5872 16.2563 7.04897 16.2563 6.38499C16.2563 5.72101 16.8089 5.18274 17.4905 5.18274C18.1722 5.18274 18.7248 5.72101 18.7248 6.38499V6.38499Z" fill="white"/>
</svg>
