<svg width="18" height="18" viewBox="0 0 18 18" fill="none" xmlns="http://www.w3.org/2000/svg">
<path d="M5.22 0H12.78C15.66 0 18 2.34 18 5.22V12.78C18 15.6629 15.6629 18 12.78 18H5.22C2.34 18 0 15.66 0 12.78V5.22C0 2.33707 2.33708 0 5.22 0ZM5.03999 1.8C3.25059 1.8 1.8 3.2506 1.8 5.04V12.96C1.8 14.751 3.24899 16.2 5.03999 16.2H12.96C14.7494 16.2 16.2 14.7494 16.2 12.96V5.04C16.2 3.249 14.751 1.8 12.96 1.8H5.03999ZM13.725 3.15C14.3463 3.15 14.85 3.65368 14.85 4.275C14.85 4.89632 14.3463 5.4 13.725 5.4C13.1037 5.4 12.6 4.89632 12.6 4.275C12.6 3.65368 13.1037 3.15 13.725 3.15ZM9 4.5C11.4853 4.5 13.5 6.51472 13.5 9C13.5 11.4853 11.4853 13.5 9 13.5C6.51472 13.5 4.5 11.4853 4.5 9C4.5 6.51472 6.51472 4.5 9 4.5ZM9 6.3C7.50883 6.3 6.3 7.50883 6.3 9C6.3 10.4912 7.50883 11.7 9 11.7C10.4912 11.7 11.7 10.4912 11.7 9C11.7 7.50883 10.4912 6.3 9 6.3Z" fill="white"/>
</svg>
