<svg width="20" height="15" viewBox="0 0 20 15" fill="none" xmlns="http://www.w3.org/2000/svg">
<g clip-path="url(#clip0)">
<path d="M13.2813 0C11.0959 0 9.32468 1.69382 9.32468 3.78775C9.32468 4.0831 9.3596 4.37374 9.42754 4.64928C6.13803 4.48981 3.22221 2.98471 1.27077 0.688853C0.930119 1.25031 0.735729 1.90142 0.735729 2.59594C0.735729 3.91042 1.43307 5.07014 2.49561 5.74673C1.84639 5.72974 1.2368 5.558 0.702702 5.27397C0.702702 5.29001 0.702702 5.30605 0.702702 5.32304C0.702702 7.15746 2.06625 8.68804 3.87709 9.03624C3.54493 9.12211 3.19578 9.16929 2.83437 9.16929C2.57959 9.16929 2.33141 9.14475 2.08984 9.10323C2.59374 10.6036 4.05543 11.7039 5.787 11.7331C4.43194 12.7447 2.72585 13.3552 0.872555 13.3552C0.552663 13.3552 0.23749 13.3345 -0.0720215 13.3015C1.67936 14.3753 3.75913 15 5.99366 15C13.2719 15 17.2521 9.22874 17.2521 4.22465C17.2521 4.06329 17.2484 3.89721 17.2408 3.7349C18.0146 3.20081 18.6855 2.53649 19.2159 1.77686C18.5062 2.07505 17.7438 2.27888 16.9436 2.37135C17.7598 1.90142 18.3873 1.16067 18.6827 0.276485C17.9184 0.709613 17.071 1.02479 16.1707 1.1937C15.4479 0.45955 14.4203 0 13.2813 0Z" fill="white"/>
</g>
<defs>
<clipPath id="clip0">
<rect width="20" height="15" fill="white"/>
</clipPath>
</defs>
</svg>
